:SAMPLES-PER-SECOND 30
:FULLY-SPECIFIED
:DEGREES
282
root  -10.0533 26.5477 -2.85567 27.9886 -56.2661 -4.14267
RightUpLeg  -66.6559 -2.7302 -17.0467
RightLeg  86.2476 -0.945077 -7.98042
RightFoot  -6.47183 0.0887617 1.94762
RightToes  -32.2849 -0.159968 -0.267529
Spine  23.2806 -1.71761 3.69084
Spine1  36.7459 -3.69215 5.48212
HEad  -2.30537 -11.044 22.8836
LeftShoulder1  0 -2.42657e-020 -4.95415e-022
LeftArm  -24.7122 -42.5441 -87.0625
LeftForeArm  29.7054 -30.2984 -5.90596
LeftHand  -0.132041 -8.653 1.3763
RightShoulder  0 2.42657e-020 1.07489e-018
RightArm  -63.4785 47.9725 53.0166
RightForeArm  24.0171 32.1697 6.36603
RightHand  -0.665461 20.0392 -3.39623
LeftUpLeg  -54.3341 0.558444 20.6355
LeftLeg  72.2999 3.7606 9.49224
LeftFoot  -19.8253 -1.03027 -5.89044
LeftToes  -37.2118 2.34596e-006 -6.06653e-008
283
root  -10.8257 27.157 -2.44117 31.9942 -54.8564 -7.08553
RightUpLeg  -75.7232 1.06691 -9.50497
RightLeg  81.7327 -1.50801 -7.52558
RightFoot  -10.8675 0.119452 1.63338
RightToes  -31.745 -0.15612 -0.263909
Spine  23.0415 -2.35809 2.49084
Spine1  36.5595 -7.26591 5.84235
HEad  -3.19102 -7.35802 19.4007
LeftShoulder1  0 -2.42657e-020 -4.95415e-022
LeftArm  -29.9606 -42.2149 -79.7684
LeftForeArm  23.3113 -33.3525 -6.66038
LeftHand  -0.0882482 -7.86496 0.914548
RightShoulder  0 2.42657e-020 1.07489e-018
RightArm  -44.0176 41.4254 69.5449
RightForeArm  25.549 48.2363 11.4133
RightHand  -2.06175 21.2214 -10.6061
LeftUpLeg  -53.8134 2.39947 22.1749
LeftLeg  70.3749 3.28543 7.56154
LeftFoot  -17.8469 -0.756593 -4.81583
LeftToes  -40.6083 2.34596e-006 -6.06653e-008
284
root  -11.7317 27.5145 -2.12309 36.5671 -52.8729 -10.9104
RightUpLeg  -82.0268 7.91802 -4.59342
RightLeg  69.5959 0.417679 0.769483
RightFoot  -9.6042 -0.0696997 -0.452137
RightToes  -45.2217 -0.261482 -0.342679
Spine  22.8048 -2.95776 1.62547
Spine1  36.1047 -11.1074 7.64218
HEad  -2.7399 -3.57881 15.356
LeftShoulder1  0 -2.42657e-020 -4.95415e-022
LeftArm  -35.0635 -40.6803 -73.1038
LeftForeArm  19.7187 -35.4378 -7.20579
LeftHand  -0.0992599 -7.24282 1.19944
RightShoulder  0 2.42657e-020 1.07489e-018
RightArm  -26.7701 33.3077 79.6868
RightForeArm  56.4572 60.3462 18.086
RightHand  -4.75017 16.2743 -31.995
LeftUpLeg  -54.2435 4.75098 24.7069
LeftLeg  70.3956 2.56755 5.9263
LeftFoot  -15.7908 -0.566445 -4.08288
LeftToes  -43.936 2.34596e-006 -6.06653e-008
285
root  -12.8085 27.4081 -1.5746 37.2807 -48.9716 -11.0044
RightUpLeg  -86.9046 13.9693 -6.53322
RightLeg  58.2678 8.23431 11.3188
RightFoot  -9.73478 -0.255609 -2.62358
RightToes  -57.1129 -0.367495 -0.390097
Spine  23.2273 -3.96876 1.81911
Spine1  36.371 -14.9244 10.0783
HEad  -4.23897 -0.819135 11.6027
LeftShoulder1  0 -2.42657e-020 -4.95415e-022
LeftArm  -38.9087 -40.54 -69.5231
LeftForeArm  19.1126 -35.5592 -7.23828
LeftHand  -0.104962 -6.98463 1.35116
RightShoulder  0 2.42657e-020 1.07489e-018
RightArm  -17.8642 28.9563 83.167
RightForeArm  75.4629 65.1361 22.3758
RightHand  -8.03406 18.64 -45.9766
LeftUpLeg  -55.8936 3.78434 26.5091
LeftLeg  72.5052 2.1116 5.41523
LeftFoot  -14.3807 -0.489866 -3.8815
LeftToes  -47.1101 2.34596e-006 -6.06653e-008
286
root  -14.002 26.668 -0.651732 31.7408 -43.3833 -5.47395
RightUpLeg  -89.0093 15.5462 -12.5422
RightLeg  54.383 10.7402 12.7771
RightFoot  -10.2824 -0.30582 -3.02069
RightToes  -60.6472 -0.400664 -0.399851
Spine  24.2776 -5.51777 2.27785
Spine1  37.6136 -19.0479 11.8149
HEad  -5.25317 -1.25877 9.32775
LeftShoulder1  0 -2.42657e-020 -4.95415e-022
LeftArm  -39.8964 -42.8407 -68.3622
LeftForeArm  17.5732 -33.365 -6.66279
LeftHand  -0.0624063 -6.32501 0.760334
RightShoulder  0 2.42657e-020 1.07489e-018
RightArm  -14.1851 28.6691 84.5395
RightForeArm  89.9595 64.6525 21.7658
RightHand  -8.63574 16.8578 -53.6483
LeftUpLeg  -57.3619 -1.74555 25.5235
LeftLeg  76.0427 1.88569 5.88667
LeftFoot  -15.0096 -0.534982 -4.05931
LeftToes  -47.877 2.34596e-006 -6.06653e-008
287
root  -15.2962 25.3908 0.414492 23.734 -37.5049 -0.0243225
RightUpLeg  -87.4342 14.6517 -15.5039
RightLeg  61.6058 10.2087 15.7123
RightFoot  9.50148 -0.152165 2.2082
RightToes  -49.9927 -0.302816 -0.364341
Spine  25.5272 -6.23288 3.00435
Spine1  39.2844 -21.0465 13.1591
HEad  -4.52067 -4.4316 9.04576
LeftShoulder1  0 -2.42657e-020 -4.95415e-022
LeftArm  -36.7337 -46.2005 -71.6392
LeftForeArm  17.195 -30 -5.83637
LeftHand  0.0158475 -5.94823 -0.675764
RightShoulder  0 2.42657e-020 1.07489e-018
RightArm  -14.1209 30.3427 83.1387
RightForeArm  86.2527 60.3588 17.9575
RightHand  -9.25055 18.2358 -53.1494
LeftUpLeg  -55.9013 -7.30951 23.3353
LeftLeg  80.6931 1.38186 5.93886
LeftFoot  -18.1822 -0.699982 -4.37243
LeftToes  -46.9533 2.34596e-006 -6.06653e-008
288
root  -16.5199 24.1352 1.28677 19.2279 -33.7101 0.774918
RightUpLeg  -87.7962 14.3966 -13.4994
RightLeg  73.2132 5.32737 13.7744
RightFoot  4.50739 0.00893758 0.150423
RightToes  -49.8722 -0.30175 -0.363837
Spine  26.3985 -4.80837 4.76147
Spine1  40.0935 -18.1091 14.5325
HEad  -1.85082 -8.48234 8.40239
LeftShoulder1  0 -2.42657e-020 -4.95415e-022
LeftArm  -30.22 -47.8022 -79.1886
LeftForeArm  19.5291 -28.8744 -5.57359
LeftHand  0.0461751 -6.74282 -1.15495
RightShoulder  0 2.42657e-020 1.07489e-018
RightArm  -19.8573 33.8535 78.1215
RightForeArm  79.143 49.849 11.9709
RightHand  -9.37693 19.368 -50.9824
LeftUpLeg  -53.551 -7.32927 22.6685
LeftLeg  86.1105 0.835325 6.20779
LeftFoot  -21.3364 -0.950051 -5.04022
LeftToes  -44.6324 2.34596e-006 -6.06653e-008
289
root  -17.5236 23.484 1.86105 17.9211 -31.3051 0.577194
RightUpLeg  -87.6206 14.0187 -11.2625
RightLeg  79.0011 3.44112 12.5825
RightFoot  0.701601 0.0077391 -0.88552
RightToes  -50.0734 -0.303529 -0.364678
Spine  26.6715 -2.93896 6.35826
Spine1  41.1669 -12.8151 12.9794
HEad  -0.146721 -9.55688 7.5831
LeftShoulder1  0 -2.42657e-020 -4.95415e-022
LeftArm  -26.0733 -47.3521 -84.4465
LeftForeArm  20.2766 -30.4371 -5.94096
LeftHand  -0.00844692 -7.11138 -0.234244
RightShoulder  0 2.42657e-020 1.07489e-018
RightArm  -28.5111 40.0932 72.4187
RightForeArm  65.3235 35.2948 7.10785
RightHand  -7.93146 22.3361 -38.3371
LeftUpLeg  -53.2629 -3.44368 21.6584
LeftLeg  89.9732 0.573876 8.67945
LeftFoot  -21.7841 -1.22627 -6.3664
LeftToes  -37.6865 2.34596e-006 -6.06653e-008
290
root  -18.2617 23.449 2.13814 17.4317 -28.7484 1.30992
RightUpLeg  -86.9465 13.0366 -10.3911
RightLeg  81.2927 2.55992 11.0837
RightFoot  -1.51033 -0.023442 -1.40144
RightToes  -48.0468 -0.28574 -0.355922
Spine  26.5895 -1.62183 7.494
Spine1  41.5156 -8.74502 12.2005
HEad  -0.655655 -10.947 7.46905
LeftShoulder1  0 -2.42657e-020 -4.95415e-022
LeftArm  -22.1421 -45.8218 -87.3252
LeftForeArm  19.1591 -32.1027 -6.3459
LeftHand  -0.0699765 -6.8441 0.801046
RightShoulder  0 2.42657e-020 1.07489e-018
RightArm  -47.6403 45.38 64.9904
RightForeArm  38.3979 21.9901 4.0693
RightHand  -2.959 23.3558 -13.8793
LeftUpLeg  -54.6948 0.0145905 18.9939
LeftLeg  91.4409 0.524942 13.007
LeftFoot  -21.345 -1.53255 -8.11906
LeftToes  -23.2847 2.34596e-006 -6.06653e-008
291
root  -18.8042 23.9758 2.276 17.3604 -25.9479 2.67375
RightUpLeg  -85.3942 12.7835 -11.3828
RightLeg  80.5736 1.96564 7.98968
RightFoot  -2.60191 -0.0411063 -1.43275
RightToes  -45.8658 -0.266955 -0.345804
Spine  25.999 -0.857933 7.85627
Spine1  40.418 -6.98305 13.7011
HEad  -2.93744 -12.4421 6.58281
LeftShoulder1  0 -2.42657e-020 -4.95415e-022
LeftArm  -19.6455 -44.2541 -90.2985
LeftForeArm  19.4143 -31.9239 -6.30176
LeftHand  -0.0126672 -7.52459 -0.177477
RightShoulder  0 2.42657e-020 1.07489e-018
RightArm  -66.2152 43.8971 57.9289
RightForeArm  20.7334 21.1633 3.90995
RightHand  -1.48464 23.5595 -6.74213
LeftUpLeg  -55.9553 3.02831 14.8215
LeftLeg  89.5643 0.967324 13.1054
LeftFoot  -21.2423 -1.48855 -7.92558
LeftToes  -22.8182 2.34596e-006 -6.06653e-008
292
root  -19.2785 24.8567 2.32091 17.5272 -22.7025 3.86749
RightUpLeg  -82.7002 12.7998 -12.7055
RightLeg  77.8007 1.3095 4.28579
RightFoot  -2.95192 -0.0391935 -1.14376
RightToes  -43.4006 -0.246202 -0.333515
Spine  24.9945 -0.68566 7.87231
Spine1  39.1779 -5.91823 13.8634
HEad  -2.5833 -10.4331 3.4676
LeftShoulder1  0 -2.42657e-020 -4.95415e-022
LeftArm  -19.886 -40.919 -91.4095
LeftForeArm  20.9474 -32.4802 -6.44012
LeftHand  -0.0158399 -7.74005 -0.135924
RightShoulder  0 2.42657e-020 1.07489e-018
RightArm  -69.8594 40.0917 53.4988
RightForeArm  21.2268 25.4727 4.8143
RightHand  -0.0822896 25.073 -5.711e-005
LeftUpLeg  -56.2067 6.73325 10.07
LeftLeg  85.1849 2.12658 13.9043
LeftFoot  -19.6911 -1.30419 -7.50445
LeftToes  -25.2015 2.34596e-006 -6.06653e-008
293
root  -19.748 25.9427 2.26264 18.144 -19.5054 4.12552
RightUpLeg  -79.1169 12.3569 -12.6224
RightLeg  73.2122 0.665944 1.56992
RightFoot  -2.23818 -0.0237403 -0.837983
RightToes  -41.8075 -0.233081 -0.325103
Spine  23.8624 -0.959424 7.48081
Spine1  38.462 -5.126 12.0071
HEad  -1.62273 -3.85286 -1.07099
LeftShoulder1  0 -2.42657e-020 -4.95415e-022
LeftArm  -22.4198 -36.0829 -89.5064
LeftForeArm  18.6691 -34.8184 -7.04049
LeftHand  -0.0449882 -7.13812 0.351662
RightShoulder  0 2.42657e-020 1.07489e-018
RightArm  -65.9675 36.7684 52.9063
RightForeArm  14.8655 30.0084 5.84049
RightHand  1.53983 25.3865 7.20056
LeftUpLeg  -55.6533 12.2492 5.88725
LeftLeg  79.7248 4.20919 16.4268
LeftFoot  -17.9838 -1.20974 -7.63395
LeftToes  -21.6144 2.34596e-006 -6.06653e-008
294
root  -20.193 27.0684 2.23529 18.3991 -16.5822 3.99149
RightUpLeg  -74.5133 10.6971 -11.0441
RightLeg  67.7419 0.407429 0.69229
RightFoot  -1.24373 -0.0110429 -0.640184
RightToes  -40.5286 -0.222719 -0.318088
Spine  22.7613 -1.41789 6.63628
Spine1  37.9747 -4.49634 8.94187
HEad  -1.16217 4.13458 -5.99331
LeftShoulder1  0 -2.42657e-020 -4.95415e-022
LeftArm  -25.9245 -30.6441 -86.6877
LeftForeArm  17.1117 -36.9003 -7.60529
LeftHand  -0.0211066 -6.6586 -0.00712821
RightShoulder  0 2.42657e-020 1.07489e-018
RightArm  -61.7089 34.0312 56.0867
RightForeArm  16.9548 36.7244 7.56026
RightHand  1.39649 25.1352 6.62988
LeftUpLeg  -54.1352 18.6285 2.68718
LeftLeg  73.517 5.64016 14.9646
LeftFoot  -16.546 -0.944302 -6.48761
LeftToes  -17.7216 2.34596e-006 -6.06653e-008
295
root  -20.6297 28.1006 2.27307 18.0348 -14.28 3.6633
RightUpLeg  -69.4477 8.26162 -8.54297
RightLeg  62.2634 0.504068 0.723537
RightFoot  -0.121007 -0.000874645 -0.45332
RightToes  -40.0154 -0.218606 -0.315209
Spine  21.7301 -1.6569 5.4694
Spine1  37.2865 -3.86944 5.98591
HEad  -0.962544 11.161 -10.7744
LeftShoulder1  0 -2.42657e-020 -4.95415e-022
LeftArm  -28.6413 -25.4082 -84.6365
LeftForeArm  16.6047 -37.2797 -7.71148
LeftHand  -0.0131378 -6.1789 -0.0425089
RightShoulder  0 2.42657e-020 1.07489e-018
RightArm  -54.6422 30.5001 59.177
RightForeArm  20.1029 45.2271 10.2535
RightHand  1.69746 26.7452 7.50335
LeftUpLeg  -51.7848 24.399 1.42337
LeftLeg  67.6019 4.95273 9.98931
LeftFoot  -11.7253 -0.387547 -3.77295
LeftToes  -26.6647 2.34596e-006 -6.06653e-008
296
root  -21.0549 28.9731 2.30019 17.3025 -12.1238 3.44827
RightUpLeg  -64.5695 4.52815 -5.62424
RightLeg  57.0728 1.18175 1.51711
RightFoot  1.16219 0.00614218 -0.227903
RightToes  -39.8925 -0.217625 -0.314514
Spine  20.4833 -1.83158 3.90675
Spine1  35.8795 -3.67578 3.34292
HEad  -0.585685 16.7308 -14.55
LeftShoulder1  0 -2.42657e-020 -4.95415e-022
LeftArm  -30.0774 -20.0996 -82.5375
LeftForeArm  13.8516 -36.8983 -7.60294
LeftHand  -0.00221876 -5.25045 -0.321985
RightShoulder  0 2.42657e-020 1.07489e-018
RightArm  -47.4218 27.4744 63.048
RightForeArm  25.051 54.1121 14.1507
RightHand  1.28979 25.3652 6.09832
LeftUpLeg  -49.4813 29.1522 1.55017
LeftLeg  62.9989 2.07944 3.48767
LeftFoot  -5.86227 -0.0816406 -1.59437
LeftToes  -35.4025 2.34596e-006 -6.06653e-008
